<svg width="72" height="26" viewBox="0 0 72 26" fill="none" xmlns="http://www.w3.org/2000/svg">
<path d="M0 0.846115H1.22587V1.22892H0V0.846115Z" fill="black"/>
<path d="M27.7851 9.90955C28.3749 9.70868 29.0039 9.60155 29.6566 9.60155C32.5136 9.60155 34.8988 11.6746 35.4439 14.4305L39.4935 13.5869C38.5656 8.90519 34.5135 5.38054 29.6566 5.38054C28.5426 5.38054 27.4759 5.56534 26.4746 5.90817L27.7851 9.90955Z" fill="white"/>
<path d="M23.007 23.317L25.7461 20.154C24.5246 19.0478 23.754 17.4328 23.754 15.633C23.754 13.8358 24.5246 12.2208 25.7461 11.1173L23.007 7.95158C20.9311 9.83176 19.6206 12.577 19.6206 15.633C19.6206 18.6916 20.9311 21.4369 23.007 23.317" fill="white"/>
<path d="M35.4439 16.8437C34.8961 19.597 32.5136 21.6673 29.6592 21.6673C29.004 21.6673 28.3723 21.5602 27.7851 21.3566L26.4746 25.3634C27.4759 25.7035 28.5453 25.8883 29.6592 25.8883C34.5108 25.8883 38.5604 22.369 39.4935 17.6927L35.4439 16.8437Z" fill="white"/>
<path d="M43.0345 20.2852C42.9008 20.0656 42.7226 19.7148 42.6125 19.455C41.9703 17.9337 41.9415 16.3588 42.4814 14.8483C43.0764 13.1904 44.2139 11.9236 45.6844 11.2754C47.5322 10.4639 49.5741 10.6219 51.3459 11.6959C52.4703 12.3548 53.2672 13.3725 53.8726 14.8135C53.9486 14.9983 54.0168 15.1938 54.0849 15.3625L43.0345 20.2852ZM46.7249 13.7207C45.4118 14.2965 44.7355 15.5553 44.8771 17.0284L50.4338 14.5831C49.4771 13.4368 48.2347 13.0565 46.7249 13.7207V13.7207ZM51.1257 19.0398C51.1231 19.0398 51.1231 19.0425 51.1231 19.0425L51.0078 18.9621C50.6749 19.5112 50.1586 19.9585 49.5059 20.2477C48.2635 20.7995 47.1129 20.6575 46.2846 19.9156L46.2086 20.0335C46.2086 20.0335 46.2086 20.0308 46.206 20.0308L44.7958 22.1868C45.1471 22.4359 45.5219 22.6448 45.915 22.8136C47.472 23.4751 49.0656 23.443 50.6356 22.7466C51.7705 22.2431 52.6617 21.4771 53.2698 20.5049L51.1257 19.0398ZM57.9458 8.10429V20.087L59.7701 20.8423L58.7347 23.3117L56.7217 22.4547C56.2709 22.2538 55.9616 21.9485 55.731 21.603C55.5082 21.2521 55.343 20.7673 55.343 20.1192V8.10429H57.9458ZM62.669 17.0364C62.669 16.016 63.1119 15.1 63.8091 14.4787L61.9377 12.3467C60.6691 13.493 59.8697 15.167 59.8697 17.0311C59.867 18.8979 60.6665 20.5745 61.9324 21.7208L63.8013 19.5889C63.1067 18.9648 62.669 18.0542 62.669 17.0364V17.0364ZM65.9925 20.4352C65.6255 20.4352 65.2691 20.3709 64.9388 20.2584L64.045 22.9716C64.6557 23.1805 65.3084 23.2956 65.9899 23.2956C68.9517 23.2983 71.4234 21.1503 71.9974 18.2979L69.2505 17.7248C68.9386 19.2755 67.5992 20.4379 65.9925 20.4352V20.4352ZM66.0004 10.7772C65.3215 10.7772 64.6688 10.8897 64.0581 11.096L64.9441 13.8118C65.2769 13.6993 65.6308 13.6377 65.9977 13.6377C67.6071 13.6404 68.9491 14.8081 69.2531 16.3615L72 15.7937C71.4365 12.936 68.9648 10.7799 66.0004 10.7772V10.7772Z" fill="white"/>
</svg>
